<svg width="230" height="42" viewBox="0 0 230 42" fill="none" xmlns="http://www.w3.org/2000/svg">
<path fill-rule="evenodd" clip-rule="evenodd" d="M18.1096 36.7929C20.3066 40.0341 23.1574 42 26.2139 42C32.9034 42 38.0392 32.5926 38.0392 20.997C38.0392 9.40148 32.907 0 26.2139 0C23.1895 0 20.3648 1.91952 18.1786 5.09653C21.9831 5.66249 25.4569 7.57803 27.9654 10.4932C30.474 13.4083 31.8497 17.1284 31.8413 20.9739C31.833 24.8194 30.441 28.5335 27.9199 31.4377C25.3987 34.3419 21.9165 36.2423 18.1096 36.7917V36.7929Z" fill="white"/>
<path fill-rule="evenodd" clip-rule="evenodd" d="M18.1132 36.7912C15.1764 32.0553 13.6849 26.5658 13.8216 20.9953C13.6823 15.3871 15.1972 9.86209 18.1774 5.10896C17.4547 5.00812 16.7257 4.95768 15.996 4.95801C13.8062 4.95732 11.6396 5.40627 9.63054 6.27705C7.62145 7.14783 5.81265 8.42187 4.31625 10.0202C2.81986 11.6186 1.66776 13.5071 0.931355 15.5689C0.194954 17.6307 -0.110053 19.8217 0.0352395 22.0061C0.180532 24.1906 0.773027 26.3219 1.776 28.268C2.77898 30.2141 4.17105 31.9336 5.86596 33.3197C7.56086 34.7059 9.52246 35.7293 11.6292 36.3265C13.7359 36.9236 15.9429 37.0818 18.1132 36.7912Z" fill="white"/>
<path d="M52.8069 33.6733H69.6881V30.583H56.1772V8.17383H52.8069V33.6733Z" fill="white"/>
<path d="M75.4084 15.4229H72.0381V33.6781H75.4084V15.4229Z" fill="white"/>
<path d="M81.6997 33.6751H84.8964V18.2059H90.699V15.4235H84.8964V13.8343C84.8964 11.2266 85.5514 11.0614 87.954 10.9176H90.6301V8.2041H87.8149C83.7492 8.2041 81.6997 9.13832 81.6997 13.9734V15.4223H77.4199V18.2047H81.6997V33.6751Z" fill="white"/>
<path d="M109.899 29.5007L107.084 27.9009C106.538 28.9519 105.699 29.8228 104.67 30.409C103.641 30.9952 102.464 31.2716 101.281 31.2051C97.1117 31.2051 94.8874 28.7008 94.6092 24.8059H110.315V23.7624C110.315 18.2321 107.292 13.8154 101.211 13.8154C95.0289 13.8154 91.3435 18.5102 91.3435 24.075C91.3435 29.6742 94.6437 34.0219 101.315 34.0219C103.02 34.1056 104.716 33.7302 106.226 32.9349C107.735 32.1396 109.004 30.9536 109.899 29.5007ZM101.207 16.5966C104.96 16.5966 106.802 19.1009 107.01 22.6487H94.6794C95.0967 18.9963 97.3899 16.5966 101.207 16.5966Z" fill="white"/>
<path d="M112.529 29.3209C114.891 32.7986 118.334 34.0514 123.371 34.0514C129.278 34.0514 132.544 30.8517 132.544 26.5741C132.544 21.4264 127.888 20.3828 123.579 19.6186C119.618 18.8876 116.317 18.2969 116.317 15.1662C116.317 12.94 118.054 10.9932 121.876 10.9932C123.483 10.8843 125.086 11.2436 126.492 12.0275C127.899 12.8115 129.047 13.9864 129.799 15.4099L132.752 13.1837C131.612 11.4488 130.037 10.0438 128.183 9.10988C126.329 8.17592 124.262 7.74574 122.189 7.8625C116.282 7.8625 113.085 11.2012 113.085 15.0961C113.085 20.1047 117.429 21.1483 121.876 21.9482C125.664 22.6435 129.312 23.2699 129.312 26.5396C129.312 29.0095 127.332 30.8874 123.649 30.8874C119.827 30.8874 117.202 29.8284 115.343 26.9925L112.529 29.3209Z" fill="white"/>
<path d="M154.334 23.7957C154.334 17.0483 150.373 13.8832 145.894 13.8832C144.314 13.8654 142.764 14.3166 141.44 15.1798C140.116 16.043 139.078 17.2794 138.458 18.7325L138.526 14.197H135.09V40.8503H138.46V29.3213C139.039 30.7371 140.04 31.9403 141.327 32.7679C142.614 33.5954 144.124 34.0072 145.652 33.9472C150.409 33.952 154.334 30.3352 154.334 23.7957ZM144.744 31.1339C140.331 31.1339 138.177 28.0032 138.177 23.9348C138.177 19.9353 140.4 16.6656 144.64 16.6656C148.427 16.6656 150.93 19.2044 150.93 23.8647C150.93 28.3527 148.636 31.1351 144.744 31.1351V31.1339Z" fill="white"/>
<path d="M156.897 33.6731H160.267V24.3191C160.267 19.3462 162.764 16.6327 166.211 16.6327C170.068 16.6327 171.323 19.1715 171.323 22.7883V33.6731H174.659V22.0252C174.659 17.1913 172.331 13.817 167.536 13.817C164.13 13.817 161.559 15.6605 160.239 19.2428L160.305 8.19629H156.903L156.897 33.6731Z" fill="white"/>
<path d="M195.644 29.5008L192.83 27.901C192.284 28.952 191.446 29.823 190.416 30.4091C189.387 30.9953 188.21 31.2717 187.027 31.2052C182.857 31.2052 180.634 28.7009 180.356 24.806H196.061V23.7625C196.061 18.2321 193.038 13.8154 186.957 13.8154C180.775 13.8154 177.09 18.5102 177.09 24.0751C177.09 29.6744 180.391 34.0221 187.063 34.0221C188.767 34.1056 190.463 33.7301 191.972 32.9348C193.481 32.1395 194.75 30.9535 195.644 29.5008ZM186.957 16.5978C190.709 16.5978 192.551 19.1021 192.76 22.65H180.425C180.842 18.9964 183.135 16.5967 186.957 16.5967V16.5978Z" fill="white"/>
<path d="M207.586 13.9199C204.667 13.9199 202.756 15.5542 201.852 19.1722L202.587 14.198H198.518V33.6749H201.888V24.0738C201.888 19.1353 204.008 16.9091 206.718 16.9091C207.795 16.8247 208.867 17.1296 209.738 17.7685L210.562 16.3695L211.5 14.9706C210.311 14.281 208.96 13.9185 207.586 13.9199Z" fill="white"/>
<path d="M229.161 29.5008L226.347 27.901C225.801 28.952 224.962 29.823 223.933 30.4091C222.904 30.9953 221.727 31.2717 220.544 31.2052C216.374 31.2052 214.151 28.7009 213.872 24.806H229.578V23.7625C229.578 18.2321 226.555 13.8154 220.474 13.8154C214.292 13.8154 210.607 18.5102 210.607 24.0751C210.607 29.6744 213.908 34.0221 220.58 34.0221C222.284 34.1056 223.979 33.7301 225.489 32.9348C226.998 32.1395 228.266 30.9535 229.161 29.5008ZM220.474 16.5978C224.226 16.5978 226.067 19.1021 226.277 22.65H213.941C214.359 18.9964 216.652 16.5967 220.474 16.5967V16.5978Z" fill="white"/>
<path d="M75.4084 8.18762H72.0381V11.5631H75.4084V8.18762Z" fill="white"/>
</svg>
