<svg width="133" height="25" viewBox="0 0 133 25" fill="none" xmlns="http://www.w3.org/2000/svg">
<path fill-rule="evenodd" clip-rule="evenodd" d="M10.4917 21.315C11.7644 23.1927 13.416 24.3316 15.1867 24.3316C19.0621 24.3316 22.0374 18.8817 22.0374 12.1641C22.0374 5.4465 19.0642 0 15.1867 0C13.4346 0 11.7982 1.11202 10.5316 2.95254C12.7357 3.28042 14.7482 4.39013 16.2014 6.07894C17.6547 7.76775 18.4517 9.92292 18.4468 12.1507C18.442 14.3785 17.6356 16.5302 16.175 18.2126C14.7144 19.8951 12.6971 20.9961 10.4917 21.3143V21.315Z" fill="white"/>
<path fill-rule="evenodd" clip-rule="evenodd" d="M10.4934 21.3141C8.79205 18.5704 7.92801 15.3903 8.00718 12.1631C7.92647 8.91417 8.80409 5.71337 10.5306 2.95976C10.1119 2.90135 9.68962 2.87213 9.26684 2.87232C7.99826 2.87191 6.74312 3.132 5.5792 3.63647C4.41529 4.14093 3.36741 4.87901 2.50051 5.80497C1.63361 6.73093 0.966172 7.82503 0.539557 9.01946C0.112942 10.2139 -0.0637562 11.4832 0.0204151 12.7487C0.104586 14.0142 0.447833 15.2489 1.02888 16.3764C1.60993 17.5038 2.41639 18.4999 3.39829 19.303C4.38019 20.106 5.51659 20.6989 6.73707 21.0448C7.95755 21.3908 9.23608 21.4824 10.4934 21.3141Z" fill="white"/>
<path d="M30.5923 19.5078H40.372V17.7175H32.5448V4.73535H30.5923V19.5078Z" fill="white"/>
<path d="M43.6859 8.93481H41.7334V19.5105H43.6859V8.93481Z" fill="white"/>
<path d="M47.3304 19.5088H49.1824V10.5471H52.544V8.93516H49.1824V8.01454C49.1824 6.50383 49.5619 6.40812 50.9537 6.3248H52.504V4.75281H50.8732C48.5178 4.75281 47.3304 5.29402 47.3304 8.0951V8.93447H44.8511V10.5464H47.3304V19.5088Z" fill="white"/>
<path d="M63.667 17.0905L62.0361 16.1637C61.7197 16.7726 61.2342 17.2771 60.6378 17.6167C60.0415 17.9563 59.3597 18.1164 58.6745 18.0779C56.2591 18.0779 54.9706 16.6271 54.8094 14.3707H63.9081V13.7662C63.9081 10.5623 62.1567 8.00366 58.6339 8.00366C55.0525 8.00366 52.9175 10.7235 52.9175 13.9473C52.9175 17.191 54.8294 19.7098 58.6945 19.7098C59.682 19.7583 60.6643 19.5408 61.539 19.08C62.4137 18.6193 63.1487 17.9322 63.667 17.0905ZM58.6318 9.61488C60.8061 9.61488 61.8729 11.0657 61.9934 13.121H54.85C55.0918 11.0051 56.4203 9.61488 58.6318 9.61488Z" fill="white"/>
<path d="M65.1904 16.9863C66.5589 19.001 68.5534 19.7268 71.4715 19.7268C74.8938 19.7268 76.7857 17.8731 76.7857 15.395C76.7857 12.4128 74.0887 11.8083 71.5921 11.3655C69.2973 10.9421 67.3854 10.5998 67.3854 8.78616C67.3854 7.49648 68.3916 6.36861 70.6058 6.36861C71.5364 6.30551 72.4653 6.51366 73.28 6.96782C74.0946 7.42198 74.76 8.10265 75.1954 8.92731L76.9062 7.63763C76.2461 6.63253 75.3333 5.81863 74.2592 5.27757C73.1852 4.7365 71.9877 4.48729 70.787 4.55493C67.3647 4.55493 65.5128 6.48911 65.5128 8.74553C65.5128 11.6471 68.0293 12.2517 70.6058 12.7151C72.8001 13.1179 74.9138 13.4808 74.9138 15.375C74.9138 16.8059 73.7664 17.8938 71.6327 17.8938C69.4185 17.8938 67.8978 17.2803 66.8206 15.6374L65.1904 16.9863Z" fill="white"/>
<path d="M89.4096 13.7855C89.4096 9.87653 87.1148 8.0429 84.5197 8.0429C83.6043 8.03257 82.7063 8.29399 81.9395 8.79407C81.1726 9.29415 80.5714 10.0104 80.2119 10.8522L80.2511 8.22468H78.2607V23.6656H80.2132V16.9866C80.5488 17.8067 81.1286 18.5038 81.874 18.9833C82.6194 19.4627 83.4943 19.7012 84.3799 19.6665C87.1355 19.6692 89.4096 17.5739 89.4096 13.7855ZM83.8538 18.0366C81.2973 18.0366 80.0493 16.223 80.0493 13.866C80.0493 11.549 81.3372 9.65481 83.7932 9.65481C85.9874 9.65481 87.4371 11.1256 87.4371 13.8254C87.4371 16.4254 86.1086 18.0373 83.8538 18.0373V18.0366Z" fill="white"/>
<path d="M90.894 19.5076H92.8466V14.0886C92.8466 11.2077 94.2929 9.63571 96.2902 9.63571C98.5244 9.63571 99.2517 11.1065 99.2517 13.2018V19.5076H101.184V12.7597C101.184 9.95933 99.8357 8.0045 97.0574 8.0045C95.0842 8.0045 93.5952 9.07246 92.83 11.1478L92.8686 4.74829H90.8975L90.894 19.5076Z" fill="white"/>
<path d="M113.341 17.0906L111.711 16.1638C111.394 16.7727 110.909 17.2772 110.312 17.6168C109.716 17.9564 109.034 18.1165 108.349 18.078C105.933 18.078 104.645 16.6272 104.484 14.3708H113.583V13.7662C113.583 10.5624 111.831 8.00366 108.309 8.00366C104.727 8.00366 102.592 10.7235 102.592 13.9473C102.592 17.1911 104.505 19.7099 108.37 19.7099C109.357 19.7583 110.339 19.5407 111.214 19.08C112.088 18.6192 112.823 17.9322 113.341 17.0906ZM108.309 9.61558C110.482 9.61558 111.549 11.0664 111.67 13.1217H104.524C104.766 11.0051 106.094 9.61489 108.309 9.61489V9.61558Z" fill="white"/>
<path d="M120.259 8.06409C118.569 8.06409 117.461 9.01086 116.938 11.1068L117.363 8.22521H115.006V19.5086H116.958V13.9465C116.958 11.0855 118.186 9.79582 119.757 9.79582C120.381 9.7469 121.001 9.92356 121.506 10.2936L121.983 9.48321L122.527 8.67278C121.838 8.2733 121.056 8.06328 120.259 8.06409Z" fill="white"/>
<path d="M132.758 17.0906L131.128 16.1638C130.811 16.7727 130.326 17.2772 129.73 17.6168C129.133 17.9564 128.451 18.1165 127.766 18.078C125.35 18.078 124.062 16.6272 123.901 14.3708H133V13.7662C133 10.5624 131.248 8.00366 127.726 8.00366C124.144 8.00366 122.009 10.7235 122.009 13.9473C122.009 17.1911 123.922 19.7099 127.787 19.7099C128.774 19.7583 129.756 19.5407 130.631 19.08C131.505 18.6192 132.24 17.9322 132.758 17.0906ZM127.726 9.61558C129.899 9.61558 130.966 11.0664 131.087 13.1217H123.941C124.183 11.0051 125.511 9.61489 127.726 9.61489V9.61558Z" fill="white"/>
<path d="M43.6859 4.74316H41.7334V6.69866H43.6859V4.74316Z" fill="white"/>
</svg>
